<?xml version="1.0" encoding="UTF-8"?>
<svg width="22px" height="32px" viewBox="0 0 22 32" version="1.1" xmlns="http://www.w3.org/2000/svg" xmlns:xlink="http://www.w3.org/1999/xlink">
    <!-- Generator: Sketch 52.2 (67145) - http://www.bohemiancoding.com/sketch -->
    <title>Shape</title>
    <desc>Created with Sketch.</desc>
    <g id="Web" stroke="none" stroke-width="1" fill="none" fill-rule="evenodd">
        <g id="Contact" transform="translate(-840.000000, -598.000000)" fill="#000000" fill-rule="nonzero">
            <g id="Group-10" transform="translate(840.000000, 598.000000)">
                <g id="mobile-alt">
                    <path d="M18.7,0 L3.3,0 C1.478125,0 0,1.31351565 0,2.93250006 L0,28.3475006 C0,29.966485 1.478125,31.2800007 3.3,31.2800007 L18.7,31.2800007 C20.521875,31.2800007 22,29.966485 22,28.3475006 L22,2.93250006 C22,1.31351565 20.521875,0 18.7,0 Z M11,29.0778302 C9.783125,29.0778302 8.8,28.0923865 8.8,26.8726415 C8.8,25.6528965 9.783125,24.6674528 11,24.6674528 C12.216875,24.6674528 13.2,25.6528965 13.2,26.8726415 C13.2,28.0923865 12.216875,29.0778302 11,29.0778302 Z M18.7,21.7738541 C18.7,22.1500148 18.32875,22.4577826 17.875,22.4577826 L4.125,22.4577826 C3.67125,22.4577826 3.3,22.1500148 3.3,21.7738541 L3.3,3.99171158 C3.3,3.61555087 3.67125,3.30778302 4.125,3.30778302 L17.875,3.30778302 C18.32875,3.30778302 18.7,3.61555087 18.7,3.99171158 L18.7,21.7738541 Z" id="Shape"></path>
                </g>
            </g>
        </g>
    </g>
</svg>