<svg width="18" height="19" viewBox="0 0 18 19" xmlns="http://www.w3.org/2000/svg">
  <path d="M17.9562083 1.72659891V17.2734368c0 .2604163-.0911454.4882801-.2734369.6835922-.1822914.195312-.4166658.292968-.7031233.292968h-4.4531144v-6.7968588h2.2656196l.3515617-2.61718124h-2.6171813V7.15627347c0-.44270708.0781248-.75520633.2343745-.93749777.2083326-.23437444.5598943-.35156166 1.0546849-.35156166h1.4062467V3.48440722c-.5468737-.05208301-1.2239552-.07812481-2.0312452-.07812481-1.0156225 0-1.8359331.29947865-2.4609316.89843536-.6249985.5989567-.93749776 1.45832966-.93749776 2.57811885v1.95312034h-2.2656196v2.61718124h2.2656196v6.7968588H1.43281017c-.28645745 0-.5208319-.097656-.70312332-.292968C.54739542 17.7617169.45625 17.5338531.45625 17.2734368V1.72659891c0-.28645745.09114542-.52083189.27343685-.70312332.18229143-.18229143.41666587-.27343685.70312332-.27343685H16.9796481c.2604162 0 .4882801.09114542.6835921.27343685.1953121.18229143.2929681.41666587.2929681.70312332z" fill="#222" fill-rule="evenodd"/>
</svg>
