<svg width="163" height="142" viewBox="0 0 163 142" xmlns="http://www.w3.org/2000/svg">
  <defs>
    <linearGradient x1="21.0377467%" y1="23.9948155%" x2="83.3748485%" y2="86.4038734%" id="a">
      <stop stop-color="#FDF6F7" offset="0%"/>
      <stop stop-color="#FAEAEB" offset="100%"/>
    </linearGradient>
  </defs>
  <path d="M1264.31274 317.246777c9.24483-.117066 18.68288 2.281784 26.26534 7.694313-.74742.621701-1.58287-.356697-2.38908-.374824-4.58285-1.465462-9.20138-2.840287-13.90648-3.859415.76408 1.388376 2.58591 1.271249 3.80397 2.039585 7.17151 3.049879 14.53823 6.486775 19.74318 12.486845 4.13632 4.828608 5.56022 11.51042 4.97872 17.725298-.25708.728444.74315.382949.93425.000703.85388-1.141751 1.71889-2.269084 2.63762-3.360733 4.04477-5.097314 8.81372-9.895958 14.88366-12.498872 10.82641-5.42819 23.42531-6.607376 35.28862-4.736915 8.07114 1.589597 15.5336 6.102713 20.75161 12.450767 3.08915 4.012561 5.31597 8.670946 6.728 13.522464 1.05773 4.010517.81685 8.228194-.01011 12.255595-1.57708 8.849818-6.11324 17.27316-13.15148 22.957458-8.85917 8.053953-18.35636 15.389931-28.30251 22.050868-12.914 8.814553-26.33124 16.962807-38.45 26.883934-2.87794 2.584784-4.59811 6.12683-6.54513 9.385598-.78875.550417-1.71844-.371771-1.60667-1.209885-.71449-3.874093-.5935-7.932572-2.0085-11.653884-.27644-.685031-.63108-1.752471-1.5856-1.392704-.61388.114646-.96487.784247-1.36703 1.071304-1.51204-.264078-1.62862-2.08841-2.36984-3.14698-1.83825-3.807128-3.33437-8.166366-6.98739-10.650811-16.13-10.613735-32.66075-20.930935-46.66596-34.348482-5.95708-5.75202-11.3088-12.606684-13.37129-20.771364-1.50785-6.135655-1.40387-12.577104-.46457-18.792054 1.19674-7.021097 3.91022-13.77744 7.79142-19.740735 4.3102-6.109315 10.85445-10.558298 18.03119-12.575358 2.73096-.763717 5.58328-.298459 8.36081-.714576 2.98786-.296562 5.97217-.767842 8.98325-.69714zm-1.04225 2.17964c-.95635.153477-2.03733.236864-2.74813.977615 1.16374.742363 2.929.837657 3.89729-.276842.03989-.581201-.68774-.790608-1.14916-.700773zm.31328 9.159075c-6.99099.761166-14.11237 2.88103-19.54982 7.504477-3.69131 3.849674-6.25513 8.683374-7.92077 13.718659-1.88437 6.971715-.68467 14.439369 1.94185 21.054351 1.58786 3.83556 4.1906 7.109328 6.81564 10.277642 4.22622 5.412936 8.76253 10.851277 14.84431 14.25308 5.69918 3.445708 10.67633 7.907363 15.91365 11.987662 4.20802 3.382315 8.64775 6.527385 12.3061 10.533036 3.43555 3.60406 6.19621 7.879646 7.77927 12.61675.82871 2.258918 1.56188 4.551371 2.37628 6.815415 6.94365-4.788261 11.44358-12.345116 18.59482-16.881513 7.71821-5.68223 15.44123-11.367366 22.82789-17.47947 9.32523-7.422775 18.57619-15.183548 25.79848-24.743949 2.52282-4.154762 4.05412-8.997749 3.98653-13.875981-.85908-3.504107-3.13509-6.453602-4.05368-9.940706-.96705-2.759072-1.61837-6.013652-4.25749-7.71259-3.65859-2.596221-8.15703-3.601173-12.51159-4.315954-1.59289-.233635-3.19252-.41646-4.79172-.600617.99965-1.238722 2.76222-.583037 4.08142-1.096872 1.90564-.269075 3.81128-.53815 5.71691-.807225-8.93136-2.023345-18.29452-.058636-26.53316 3.608704-6.16847 2.6759-12.16698 5.750322-18.46803 8.113566-2.03873.942487-3.45251 2.749889-5.17342 4.114487-1.15615.83645-2.59529 1.114803-3.90952 1.522899-1.72054 1.34977-1.56014 3.807267-2.75661 5.510333-.25897.415703-.63296 1.402112-.73616.37994-.84823-3.1247-.35438-6.416755-1.01176-9.574495-.69283-6.054555-3.24551-12.016869-7.76627-16.198404-5.15839-5.100398-12.31023-7.746449-19.44183-8.423317-1.35324-.238666-2.72607-.37937-4.10132-.359908zm96.9328 13.871501c-.80207.057051-.24451 1.084013.26607 1.176747.4961.497348 1.91935.497155 1.6687-.479002-.31395-.736084-1.26911-.696377-1.93477-.697745zm-135.63216 23.48501c.02274.966147.31591 1.929438.87332 2.722354.23937-1.117297-.25961-2.225347-.83769-3.154838-.01188.144161-.02376.288323-.03563.432484zm1.13808 3.759973c.58374 2.2519 1.66447 4.377424 2.79795 6.408856 1.213 2.08873 2.69111 4.028712 4.43005 5.707944.76708-.251064.27666-1.320354-.02476-1.794401-2.20631-3.553196-4.38693-7.267678-7.20324-10.322399zm143.92265 8.376355c-3.29572 4.643904-6.3765 9.45451-10.04186 13.823789 1.0384.749868 2.0416-.47944 2.67027-1.201403 3.23409-3.693117 5.62898-8.073173 7.38981-12.630942l-.01822.008556zm-113.40856 22.782627c-.71351.513603.81151 1.328726.87504.472151-.1986-.277619-.52032-.501046-.87504-.472151zm1.97084 1.54722c1.91654 1.972516 4.36774 3.281458 6.72032 4.651619-1.97015-2.180227-4.5921-3.585901-7.0924-5.05833.12403.135569.24806.27114.37208.406711zm74.85114 12.092537c-2.27891 1.515033-4.47875 3.145386-6.63685 4.827092 2.66066-.631599 4.55032-2.767955 6.7251-4.268626.37099-.334954.70829-.725919.894-1.195711-.32741.212415-.65483.42483-.98225.637245z" transform="rotate(10 2456.03938878 -6770.76931244)" fill="url(#a)" fill-rule="nonzero"/>
</svg>
