<?xml version="1.0" encoding="UTF-8"?>
<svg width="86px" height="86px" viewBox="0 0 86 86" version="1.1" xmlns="http://www.w3.org/2000/svg" xmlns:xlink="http://www.w3.org/1999/xlink">
    <!-- Generator: Sketch 52.2 (67145) - http://www.bohemiancoding.com/sketch -->
    <title>Group 5</title>
    <desc>Created with Sketch.</desc>
    <g id="Web" stroke="none" stroke-width="1" fill="none" fill-rule="evenodd">
        <g id="Blog-Post" transform="translate(-571.000000, -2062.000000)">
            <g id="Group-7" transform="translate(571.000000, 2062.000000)">
                <g id="Group-5">
                    <rect id="Rectangle-3" fill="#3B5998" transform="translate(43.000000, 43.000000) rotate(45.000000) translate(-43.000000, -43.000000) " x="13" y="13" width="60" height="60"></rect>
                    <g id="facebook-f" transform="translate(36.000000, 29.000000)" fill="#FFFFFF" fill-rule="nonzero">
                        <path d="M4.19453125,28 L4.19453125,15.4765625 L0,15.4765625 L0,10.5 L4.19453125,10.5 L4.19453125,6.57890625 C4.19453125,2.31875 6.79765625,0 10.5984375,0 C12.4195313,0 13.9835938,0.13671875 14.4375,0.196875 L14.4375,4.6484375 L11.8015625,4.6484375 C9.734375,4.6484375 9.33515625,5.6328125 9.33515625,7.07109375 L9.33515625,10.5 L14,10.5 L13.3601563,15.4765625 L9.33515625,15.4765625 L9.33515625,28" id="Shape"></path>
                    </g>
                </g>
            </g>
        </g>
    </g>
</svg>