<svg width="250" height="185" viewBox="0 0 250 185" xmlns="http://www.w3.org/2000/svg">
  <defs>
    <linearGradient x1="19.0332981%" y1="0%" x2="77.8369791%" y2="71.8096803%" id="a">
      <stop stop-color="#FDF4F0" offset="0%"/>
      <stop stop-color="#FBE5DD" offset="100%"/>
    </linearGradient>
    <linearGradient x1="21.0377467%" y1="23.9948155%" x2="83.3748485%" y2="86.4038734%" id="b">
      <stop stop-color="#FDF6F7" offset="0%"/>
      <stop stop-color="#FAEAEB" offset="100%"/>
    </linearGradient>
  </defs>
  <g fill-rule="nonzero" fill="none">
    <path d="M121.784561.56912219c-.375605-.006672-.751772-.00674222-1.128157.0020367-9.244831-.1170688-18.682425 2.28236773-26.264894 7.69489514.7474333.62170428 1.5828217-.3572372 2.3890367-.37536183C101.3634 6.42523848 105.98143 5.05045076 110.686527 4.03132214c-.764078 1.38837751-2.585315 1.27125954-3.803379 2.03959866-7.1715127 3.04987811-14.5388259 6.4874156-19.7437729 12.4874881-4.1363262 4.8286048-5.5597038 11.5100362-4.9781965 17.7249144.2570765.7284442-.7431547.3833128-.9342568.0010325-.8538733-1.1417528-1.7191724-2.2689753-2.6378949-3.3606214-4.0447731-5.0973132-8.8138485-9.8959812-14.8837865-12.4988958-10.826411-5.4281898-23.4247595-6.6080929-35.2880704-4.7376362-8.0711335 1.5896019-15.5336306 6.1031463-20.75165415 12.4512002-3.08914452 4.0125631-5.31646483 8.6708033-6.72849629 13.5223226-1.05773485 4.0105187-.81659515 8.2278226.01037319 12.2552243 1.57707537 8.8498162 6.11286844 17.2738902 13.15110865 22.95819 8.8591619 8.0539486 18.3562692 15.3899652 28.3024202 22.0508932 12.9139827 8.8145493 26.3318669 16.9627953 38.4506404 26.8839263 2.8779351 2.584778 4.5979566 6.126287 6.5449639 9.385061.7887593.550413 1.7179402-.371962 1.6061703-1.210074.7144871-3.874089.5934853-7.9325 2.008496-11.653813.2764324-.685033.631937-1.752344 1.5864688-1.39257.6138763.114648.9644808.784071 1.3666465 1.071127.0358672-.006265.0672916-.016893.101613-.024883-1.9068647-2.060218-3.7194648-4.263329-5.3369654-6.624787-.6196631 1.769565-1.2151808 3.54771-1.8498468 5.312083-6.9436464-4.788243-11.4436426-12.34446-18.5948797-16.880854-7.7181993-5.68223-15.4408731-11.3681017-22.8275379-17.4802089-9.3252347-7.4227705-18.5760002-15.1833454-25.7982826-24.7437461-2.522829-4.1547643-4.054504-8.9976767-3.986916-13.8759106.8590816-3.5041063 3.1346931-6.453734 4.0532777-9.9408415.9670449-2.7590679 1.6184241-6.0135837 4.2575459-7.7125239 3.6585874-2.5962195 8.1578187-3.6008306 12.5123753-4.3156147 1.5928929-.2336319 3.1923482-.4162134 4.7915535-.6003651-.9996527-1.238727-2.7620668-.5832168-4.0812712-1.0970512l-5.7175139-.8077551c8.9313684-2.0233443 18.2948062-.0578567 26.5334494 3.6094795 6.1684721 2.675902 12.1673338 5.7495317 18.4683778 8.1127723 2.0387348.9424914 3.4522275 2.7498557 5.1731354 4.1144528 1.1561403.8364496 2.5949088 1.1151231 3.9091448 1.5232184 1.7205477 1.3497741 1.5606621 3.8070687 2.7571402 5.5101344.2589712.4157028.6330148 1.4027146.7362059.3805463.8482351-3.1247013.3535985-6.417076 1.0109867-9.5748148.6928206-6.0545525 3.245677-12.0170484 7.7664413-16.1985856 5.1583931-5.1003977 12.3104381-7.7459379 19.4420381-8.4228048 1.353235-.2386703 2.725726-.379273 4.100973-.3598105 6.990992.7611685 14.112428 2.8806583 19.549876 7.5041093 3.691312 3.8496732 6.255293 8.6830138 7.92094 13.7182972 1.461066 5.4056054 1.06297 11.1083909-.411656 16.4816597 2.946935 1.1998222 5.778687 2.7114987 8.423843 4.567584.361137.1491021.565377.2941911.729978.4240968.435983-.5403685.880956-1.0715255 1.34902-1.5792125-.186001.7175449-.427358 1.4202886-.699913 2.1132209l.135835.114058 2.349636 1.6777199-2.004343 1.6673459c-.068911.1867328-.183353.412199-.375359.6864338.669221.4708261 1.326321.9647414 1.972198 1.4786334 1.30398-2.4204927 2.351061-4.9737361 3.032952-7.6731248 1.507855-6.1356529 1.403842-12.5769433.464539-18.7918904-1.19673-7.0210988-3.910129-13.7773702-7.79133-19.7406674-4.310196-6.10931823-10.854063-10.55856508-18.030796-12.57561944-2.730965-.76372491-5.583069-.29831512-8.36059-.71442946-2.614387-.25949819-5.226369-.6530261-7.855621-.69991261zm-.269596 2.16298829c.063979.00168556.125854.00846992.183531.01969993.956343.15347679 2.03804.2360128 2.748847.976765-1.163736.74236753-2.929458.83764352-3.89774-.27685239-.034906-.50855297.517519-.73177662.965362-.71961254zm-27.4424974 5.7050447c-.012813-.00926851-.037501-.00398696-.081201.03047443.044334.15101564.11964-.00265485.081201-.03047443zM24.4530729 25.7815481c.8020692.0570504.2440908 1.0841559-.2664891 1.1768881-.4961023.497349-1.9190449.4971053-1.6683868-.4790501.3139459-.7360832 1.2692053-.6964734 1.9348759-.697838zM160.049594 48.8340956c.011876.1441592.023373.2882292.035249.4323891-.022748.9661481-.31567 1.9300081-.873076 2.7229233-.239376-1.1172939.259751-2.225823.837827-3.1553124zm-2.883648 5.5516075l.387804.2768573c.003512-.0044176.006813-.0090676.010374-.0134788-.119232-.0911928-.248198-.1808292-.398178-.2633785zm1.463083 4.2959133l-.519488.4334243c.065343.0453231.129774.091166.194927.1368762.134908-.1917656.244504-.3840516.324561-.5703005zm-14.533307.5941483c-.232876.3415418-.471562.6790651-.714429 1.0140986 2.822401 1.1086456 5.515602 2.5800964 7.961374 4.4597429-.11321-.4308067.187267-1.0632325.401292-1.3998273.030284-.0487786.060961-.0984069.091251-.1472438-2.426292-1.4479211-5.042742-2.7247079-7.739488-3.9267704zM15.0057934 61.3941665l.0186675.0093331c3.2957255 4.6439009 6.3760594 9.4537542 10.0414214 13.8230272-1.0384085.7498709-2.0413797-.4787738-2.6700362-1.2007407-3.2340973-3.6931173-5.6292244-8.0738463-7.3900527-12.6316196zm137.9295646 2.4844342c-.371103.4140621-.756315.8148737-1.155111 1.202816.789641.6302809 1.551638 1.304531 2.282242 2.0240452.400171.3717976.780952.7579779 1.153039 1.1509692.471126-.5694879.927933-1.1500344 1.374935-1.7378597-1.145335-.9456125-2.367896-1.8218797-3.655105-2.6399707zm-14.001366 2.0613723c-3.90252 4.9095032-8.151107 9.6863458-13.679934 12.7788642-5.699186 3.4457085-10.676113 7.9074004-15.913435 11.9876954-1.830571 1.4713707-3.702227 2.900689-5.537093 4.372644.449235 2.2694044 1.126681 4.5208815 1.987754 6.6942834.505186 1.216987 1.150677 2.401837 1.896507 3.572148 14.722028-9.6347065 29.555211-19.2729425 42.299644-31.4826163.200448-.1935491.398276-.391871.597258-.5879261-.377797-.4209696-.770978-.8269466-1.185188-1.2100739l-.041477-.0383626-.040441-.0404385c-2.833278-2.8014324-6.451727-4.8003397-10.383595-6.0462176zm-10.500773 18.2454435c.71351.5136054-.81163 1.3294034-.875152.4728325.198598-.2776221.520433-.5017293.875152-.4728325zm-1.598914 1.1406009c-.124028.1355692-.248221.2719362-.372249.4075054-1.916533 1.9725171-4.367627 3.2814073-6.720208 4.6515724 1.970155-2.1802301 4.59216-3.5866508 7.092457-5.0590778zM50.6287871 97.1882503l.9819523.6376981c2.2789081 1.5150364 4.4791528 3.1451096 6.6372551 4.8268106-2.6606709-.631604-4.5506063-2.7682888-6.7253893-4.2689544-.3709913-.3349647-.7081058-.7257634-.8938181-1.1955543zm47.4167917 2.9987407c-.3405221.346751-.6823407.692614-1.0109867 1.052461-.463654.486398-.9122202.986954-1.3500557 1.497295 1.8944211 2.545907 3.4714936 5.198359 4.9978966 7.65757l.019702.031106c.031175.049017.062726.102871.094362.15346.390613-.484714.810489-.945814 1.272284-1.370792-.966907-1.501244-1.85342-3.101841-2.5756793-4.846507l-.0093324-.022812-.0093337-.022813c-.5323144-1.340654-1.0129462-2.720259-1.4288568-4.128968z" fill="url(#a)"/>
    <path d="M128.896639 49.4435361c9.244828-.117066 18.682878 2.2817841 26.265344 7.6943122-.747424.6217014-1.582869-.3566964-2.389077-.3748239-4.582857-1.4654614-9.201388-2.8402871-13.906489-3.859415.764085 1.3883768 2.585917 1.271249 3.803977 2.0395853 7.171509 3.0498795 14.538225 6.4867751 19.743176 12.4868454 4.136324 4.8286078 5.560224 11.5104198 4.978722 17.725298-.257082.7284435.743154.3829483.934254.0007023.853874-1.1417506 1.718887-2.2690841 2.637612-3.3607323 4.044777-5.0973148 8.813725-9.8959582 14.883661-12.4988728 10.82641-5.4281896 23.425315-6.6073757 35.288622-4.7369147 8.071139 1.5895975 15.533596 6.1027128 20.751611 12.4507668 3.089151 4.0125618 5.315966 8.6709467 6.727997 13.5224645 1.057735 4.0105166.816855 8.2281942-.010106 12.2555941-1.577082 8.849819-6.113241 17.273161-13.151486 22.957459-8.859164 8.053953-18.35636 15.389931-28.30251 22.050868-12.913991 8.814553-26.331233 16.962806-38.45 26.883933-2.877937 2.584785-4.598109 6.126831-6.545122 9.385598-.788755.550418-1.718444-.37177-1.606678-1.209884-.714485-3.874093-.593491-7.932572-2.0085-11.653884-.276431-.685031-.631072-1.752472-1.585594-1.392704-.613887.114646-.964868.784246-1.367035 1.071304-1.512034-.264078-1.628618-2.08841-2.369841-3.146981-1.838244-3.807127-3.334371-8.166366-6.987387-10.65081-16.130003-10.613736-32.660753-20.930936-46.6659629-34.348482-5.9570804-5.752021-11.3087925-12.606684-13.3712889-20.771364-1.5078444-6.1356548-1.4038701-12.5771039-.4645686-18.7920545 1.1967374-7.0210969 3.9102253-13.7774399 7.7914261-19.7407348 4.3101913-6.1093148 10.8544423-10.5582975 18.0311843-12.5753582 2.73096-.7637172 5.583282-.2984584 8.360808-.7145756 2.987866-.2965621 5.972174-.7678418 8.983251-.6971398zm-1.04225 2.1796401c-.956343.1534761-2.037324.236864-2.748126.9776141 1.163733.7423634 2.929002.8376576 3.897287-.2768411.039889-.5812018-.687743-.7906088-1.149161-.700773zm.313287 9.1590749c-6.990993.7611657-14.112376 2.8810298-19.549821 7.5044764-3.691314 3.8496742-6.255137 8.683374-7.920778 13.7186597-1.8843657 6.9717148-.684665 14.4393684 1.941859 21.0543508 1.587853 3.83556 4.190599 7.109328 6.815633 10.277642 4.226225 5.412936 8.762531 10.851277 14.844308 14.25308 5.699183 3.445708 10.676331 7.907363 15.91365 11.987662 4.208025 3.382315 8.647755 6.527385 12.306106 10.533036 3.435547 3.60406 6.196212 7.879646 7.779271 12.61675.828703 2.258918 1.561877 4.551371 2.376274 6.815415 6.94365-4.788261 11.443583-12.345116 18.594824-16.881513 7.718205-5.682231 15.441228-11.367366 22.827891-17.479471 9.325227-7.422775 18.576184-15.183547 25.798478-24.743948 2.522819-4.154762 4.054118-8.997749 3.986534-13.8759816-.859085-3.5041063-3.135097-6.4536019-4.053682-9.940706-.967052-2.7590714-1.618372-6.0136517-4.257494-7.7125895-3.658589-2.5962216-8.157025-3.6011736-12.511586-4.3159545-1.592892-.2336349-3.192525-.4164594-4.791724-.6006163.999654-1.2387223 2.762224-.5830373 4.081424-1.096872 1.905639-.2690752 3.811278-.5381504 5.71691-.8072257-8.931362-2.0233451-18.294521-.0586361-26.533162 3.6087041-6.16847 2.6758998-12.166981 5.7503226-18.468028 8.113566-2.038734.9424872-3.452515 2.7498894-5.173424 4.1144872-1.156143.8364503-2.595284 1.1148029-3.909518 1.5228989-1.720544 1.3497705-1.560136 3.8072674-2.756606 5.5103331-.258971.4157028-.632968 1.402112-.736166.3799402-.848227-3.1246999-.354374-6.416755-1.011761-9.5744953-.692826-6.0545545-3.245508-12.0168686-7.766264-16.1984037-5.15839-5.1003984-12.310233-7.7464491-19.441835-8.4233167-1.353234-.2386661-2.72607-.3793706-4.101313-.3599081zm96.932797 13.871501c-.802071.0570506-.244511 1.0840122.266072 1.1767471.496101.497348 1.919348.4971541 1.668699-.4790025-.313956-.7360839-1.26911-.6963772-1.934771-.6977446zm-135.6321661 23.48501c.0227466.9661467.3159165 1.9294379.8733204 2.7223539.2393741-1.1172969-.2596099-2.2253477-.8376836-3.1548385-.0118803.1441613-.0237607.2883233-.0356368.4324846zm1.1380852 3.7599729c.5837428 2.2519 1.6644651 4.377424 2.797953 6.408855 1.2130012 2.088731 2.691105 4.028713 4.4300456 5.707945.7670841-.251064.2766557-1.320354-.0247615-1.794402-2.2063078-3.553196-4.3869242-7.267677-7.2032371-10.322398zm143.9226529 8.376355c-3.295723 4.643903-6.376503 9.45451-10.041868 13.823788 1.038407.749869 2.041607-.479439 2.67027-1.201402 3.234095-3.693117 5.628988-8.073173 7.38981-12.630942l-.018212.008556zM121.12048 133.057717c-.713509.513603.811515 1.328726.875037.472151-.198598-.27762-.520319-.501046-.875037-.472151zm1.970846 1.547219c1.916534 1.972517 4.367732 3.281459 6.720311 4.65162-1.970151-2.180227-4.592097-3.585902-7.092395-5.058331.12403.13557.248054.271141.372084.406711zm74.851136 12.092538c-2.278906 1.515033-4.478752 3.145386-6.636852 4.827092 2.660663-.631599 4.550317-2.767955 6.725097-4.268626.370991-.334955.708292-.725919.894005-1.195711-.327412.212415-.654831.42483-.98225.637245z" fill="url(#b)"/>
  </g>
</svg>
