<svg width="18" height="19" viewBox="0 0 18 19" xmlns="http://www.w3.org/2000/svg">
  <path d="M9.2062291 5.00784109c.80729 0 1.5559857.20182264 2.2460884.60546731.6901028.40364467 1.2369764.95051837 1.6406211 1.64062109.4036447.69010272.6054673 1.43879845.6054673 2.24608841 0 .8072899-.2018226 1.5559857-.6054673 2.2460884-.4036447.6901027-.9505183 1.2369764-1.6406211 1.6406211-.6901027.4036446-1.4387984.6054673-2.2460884.6054673-.8072899 0-1.5559856-.2018227-2.2460884-.6054673-.6901027-.4036447-1.2369764-.9505184-1.640621-1.6406211-.4036447-.6901027-.6054674-1.4387985-.6054674-2.2460884 0-.80728996.2018227-1.55598569.6054674-2.24608841.4036446-.69010272.9505183-1.23697642 1.640621-1.64062109.6901028-.40364467 1.4387985-.60546731 2.2460884-.60546731zm0 7.42185731c.80729 0 1.4973921-.2864575 2.0703076-.859373.5729155-.5729155.859373-1.2630176.859373-2.0703075 0-.80728996-.2864575-1.49739208-.859373-2.07030758-.5729155-.5729155-1.2630176-.85937295-2.0703076-.85937295-.8072899 0-1.497392.28645745-2.0703075.85937295-.5729155.5729155-.859373 1.26301762-.859373 2.07030758 0 .8072899.2864575 1.497392.859373 2.0703075.5729155.5729155 1.2630176.859373 2.0703075.859373zm5.7421738-7.61716934c-.0260418.28645745-.1367184.53385309-.3320304.74218573-.195312.20833264-.4361971.31249925-.7226545.31249925-.2864575 0-.5338531-.10416661-.7421858-.31249925-.2083326-.20833264-.3124992-.45572828-.3124992-.74218573s.1041666-.5338531.3124992-.74218573c.2083327-.20833264.4557283-.31249926.7421858-.31249926.2864574 0 .5338531.10416662.7421857.31249926.2083326.20833263.3124992.45572828.3124992.74218573zm2.968743 1.05468498c.0260418.72916513.0390624 1.94009974.0390624 3.63280386 0 1.6927041-.0195312 2.9101493-.0585936 3.652335-.0390624.7421858-.1497391 1.3867155-.3320305 1.9335892-.2343744.6510403-.5924467 1.2174452-1.0742162 1.6992147-.4817695.4817694-1.0481744.8398417-1.6992147 1.0742162-.5468737.1822914-1.1914034.292968-1.9335891.3320304-.7421857.0390624-1.959631.0585936-3.6523351.0585936-1.6927041 0-2.9101493-.0195312-3.652335-.0585936-.7421857-.0390624-1.3867154-.1627602-1.9335891-.3710929-.6510404-.2083326-1.2174453-.5533843-1.6992147-1.0351537-.4817695-.4817695-.8398418-1.0481744-1.0742162-1.6992147-.1822915-.5468737-.2929681-1.1914034-.3320305-1.9335892C.4757812 12.4101672.45625 11.192722.45625 9.5000179c0-1.69270412.0195312-2.91014933.0585936-3.65233506.0390624-.74218573.149739-1.38671544.3320305-1.93358914.2343744-.65104031.5924467-1.21744521 1.0742162-1.6992147.4817694-.48176949 1.0481743-.83984175 1.6992147-1.07421619C4.1671787.95837138 4.8117084.84769476 5.5538941.80863235 6.2960798.76956995 7.513525.75003874 9.2062291.75003874c1.6927041 0 2.9101494.01953121 3.6523351.05859361.7421857.03906241 1.3867154.14973903 1.9335891.33203046.6510403.23437444 1.2174452.5924467 1.6992147 1.07421619.4817695.48176949.8398418 1.04817439 1.0742162 1.6992147.1822914.5468737.2994787 1.19791401.3515617 1.95312034zm-1.8749956 8.78904156c.1562497-.4427071.2604163-1.1458304.3124993-2.10937.0260418-.5729155.0390624-1.3802048.0390624-2.4218692V8.87501937c0-1.06770559-.0130206-1.87499553-.0390624-2.42186922-.052083-.98958078-.1562496-1.6927041-.3124993-2.10936998-.3124992-.80728994-.8723935-1.36718424-1.6796835-1.67968349-.4166658-.15624963-1.1197892-.26041624-2.1093699-.31249926-.5729155-.0260418-1.3802049-.0390624-2.4218693-.0390624h-1.249997c-1.0416644 0-1.8489537.0130206-2.4218692.0390624-.9635396.05208302-1.6666629.15624963-2.10937.31249926-.8072899.31249925-1.3671842.87239355-1.6796835 1.67968349-.1562496.41666588-.2604162 1.1197892-.3124992 2.10936998-.0260418.5729155-.0390624 1.38020484-.0390624 2.42186922v1.24999703c0 1.0416644.0130206 1.8489537.0390624 2.4218692.052083.9635396.1562496 1.6666629.3124992 2.10937.3385411.8072899.8984354 1.3671842 1.6796835 1.6796835.4427071.1562496 1.1458304.2604162 2.10937.3124992.5729155.0260418 1.3802048.0390624 2.4218692.0390624h1.249997c1.0677056 0 1.8749956-.0130206 2.4218693-.0390624.9895807-.052083 1.6927041-.1562496 2.1093699-.3124992.80729-.3385411 1.3671843-.8984354 1.6796835-1.6796835z" fill="#222" fill-rule="evenodd"/>
</svg>
