<?xml version="1.0" encoding="UTF-8"?>
<svg width="28px" height="29px" viewBox="0 0 28 29" version="1.1" xmlns="http://www.w3.org/2000/svg" xmlns:xlink="http://www.w3.org/1999/xlink">
    <!-- Generator: Sketch 52.2 (67145) - http://www.bohemiancoding.com/sketch -->
    <title></title>
    <desc>Created with Sketch.</desc>
    <g id="Web" stroke="none" stroke-width="1" fill="none" fill-rule="evenodd">
        <g id="Contact" transform="translate(-837.000000, -539.000000)" fill="#222222">
            <g id="Group-8" transform="translate(836.000000, 539.000000)">
                <path d="M28.070248,9.5234744 C28.6900379,10.0338896 28.9999332,10.7083677 28.9999332,11.5469071 L28.9999332,25.8749979 C28.9999332,26.6041626 28.7447252,27.2239533 28.2343101,27.7343685 C27.7238949,28.2447837 27.1041042,28.4999917 26.3749395,28.4999917 L3.62499374,28.4999917 C2.89582909,28.4999917 2.27603835,28.2447837 1.76562317,27.7343685 C1.255208,27.2239533 1,26.6041626 1,25.8749979 L1,11.4922197 C1,10.690138 1.32812422,10.0156607 1.98437265,9.46878703 C3.44270279,8.2656649 5.90363442,6.29691959 9.36716755,3.56255111 L9.91404125,3.07036478 C10.8619554,2.30474161 11.6093497,1.73963907 12.1562234,1.37505633 C13.1770546,0.791724106 14.1249687,0.500058413 14.9999666,0.500058413 C15.8749645,0.500058413 16.8228787,0.791724106 17.8437098,1.37505633 C18.4270421,1.73963907 19.1744356,2.30474161 20.085892,3.07036478 L20.6327657,3.56255111 C24.2785906,6.44275286 26.7577511,8.42972701 28.070248,9.5234744 Z M26.3749395,25.5468737 L26.3749395,11.6562818 C26.3749395,11.5833656 26.338481,11.5104486 26.2655648,11.4375323 C23.3124468,9.03128807 20.8879737,7.08077161 18.9921446,5.58598379 L18.4452709,5.14848483 C17.7161063,4.52869492 17.1510029,4.09119596 16.7499624,3.83598796 C16.0572555,3.36203048 15.4739241,3.12505215 14.9999666,3.12505215 C14.5260091,3.12505215 13.9426778,3.36203048 13.2499708,3.83598796 C12.8489304,4.09119596 12.283827,4.52869492 11.5546623,5.14848483 L3.73436848,11.4375323 C3.66145227,11.4739909 3.62499374,11.5469071 3.62499374,11.6562818 L3.62499374,25.5468737 C3.62499374,25.6197899 3.66145227,25.692707 3.73436848,25.7656232 C3.8072847,25.8385394 3.88020174,25.8749979 3.95311796,25.8749979 L26.0468153,25.8749979 C26.1197315,25.8749979 26.1926485,25.8385394 26.2655648,25.7656232 C26.338481,25.692707 26.3749395,25.6197899 26.3749395,25.5468737 Z M24.6249437,15.2656482 C24.7343184,15.4114815 24.7798909,15.5755436 24.7616621,15.7578345 C24.7434333,15.9401255 24.6614022,16.0859588 24.5155689,16.1953335 L20.085892,19.8046999 C19.1379779,20.5703231 18.3905835,21.1354256 17.8437098,21.5000083 C16.8228787,22.0833406 15.8749645,22.3750063 14.9999666,22.3750063 C14.1249687,22.3750063 13.1770546,22.0833406 12.1562234,21.5000083 C11.5728912,21.1354256 10.8254977,20.5703231 9.91404125,19.8046999 L5.48436431,16.1953335 C5.33853104,16.0859588 5.25649999,15.9401255 5.23827115,15.7578345 C5.2200423,15.5755436 5.26561483,15.4114815 5.37498957,15.2656482 L6.19530011,14.2812756 C6.30467485,14.1354423 6.45050812,14.0534112 6.63279907,14.0351824 C6.81509002,14.0169535 6.97915213,14.0625261 7.1249854,14.1719008 L11.5546623,17.7265798 C12.283827,18.3463698 12.8489304,18.7838687 13.2499708,19.0390767 C13.9426778,19.5130342 14.5260091,19.7500125 14.9999666,19.7500125 C15.4739241,19.7500125 16.0572555,19.5130342 16.7499624,19.0390767 C17.1510029,18.7838687 17.7161063,18.3463698 18.4452709,17.7265798 L22.8749478,14.1719008 C23.0207811,14.0625261 23.1848432,14.0169535 23.3671342,14.0351824 C23.5494251,14.0534112 23.6952584,14.1354423 23.8046331,14.2812756 L24.6249437,15.2656482 Z" id=""></path>
            </g>
        </g>
    </g>
</svg>