<svg width="20" height="16" viewBox="0 0 20 16" xmlns="http://www.w3.org/2000/svg">
  <path d="M15.5606563 7.06065625L8.93934375.43934375C8.65804079.15803871 8.27651144.00000208 7.8786875 0H1.5C.6715625 0 0 .6715625 0 1.5v6.3786875c.00000208.39782394.1580387.77935329.43934375 1.06065625l6.6213125 6.62131245c.58575.5857813 1.5355.5858125 2.1213125 0l6.37868755-6.37868745c.5857812-.58578125.5857812-1.53553125 0-2.1213125zM3.5 5C2.6715625 5 2 4.3284375 2 3.5S2.6715625 2 3.5 2 5 2.6715625 5 3.5 4.3284375 5 3.5 5zm16.0606563 4.18196875l-6.3786876 6.37868755c-.5857812.5857812-1.5355312.5857812-2.1213125 0l-.01125-.01125 5.4393438-5.4393438c.5312187-.53121875.82375-1.2375.82375-1.98875s-.2925625-1.45753125-.82375-1.98875L10.3561562 0h1.5225313c.3978239.00000208.7793533.1580387 1.0606562.43934375l6.6213125 6.6213125c.5857813.58578125.5857813 1.53553125 0 2.1213125z" fill="#F3CACC" fill-rule="nonzero"/>
</svg>
