<svg width="100" height="82" viewBox="0 0 100 82" xmlns="http://www.w3.org/2000/svg">
  <defs>
    <linearGradient x1="-45.3773082%" y1="162.627645%" x2="105.376599%" y2="-10.0999321%" id="a">
      <stop stop-color="#FFF" offset="0%"/>
      <stop stop-color="#EEC8AF" offset="100%"/>
    </linearGradient>
  </defs>
  <path d="M73.1669173.2024549c-5.590839-.07079607-11.2985294 1.37991565-15.8840491 4.65315843.4520107.37597572.9572432-.21571326 1.4448048-.22667587 2.7714918-.88624237 5.564564-1.71767233 8.4099884-2.33399282-.4620791.83962488-1.5638383.7687914-2.3004642 1.23344519-4.3369946 1.84442418-8.7920418 3.92289715-11.9397488 7.55145817-2.5014555 2.9201153-3.3625636 6.9609612-3.0108958 10.7194277.155469.4405285-.4494223.2315893-.564993.0004052-.516384-.6904768-1.0395053-1.3722357-1.5951055-2.0324128-2.4460883-3.0826168-5.3301238-5.984611-9.0009368-7.5587314-6.5473063-3.28271478-14.166531-3.99583063-21.3409041-2.86466383-4.8810428.96131393-9.39399305 3.69063443-12.54960344 7.52963923-1.86817103 2.4266091-3.21484568 5.2437811-4.06877534 8.1777513-.63966773 2.4253725-.49399215 4.9760256.0061158 7.4116081.9537427 5.3519552 3.69700024 10.445996 7.95339921 13.8835924C14.0833531 51.2171158 19.8268172 55.6535731 25.8417814 59.681791c7.8097711 5.3306253 15.92389 10.2583083 23.2527526 16.2581417 1.7404395 1.5631526 2.7807203 3.7052139 3.9581805 5.6759675.4770038.332865 1.0392385-.2248317.9716455-.731682.432088-2.3428695.3589139-4.7972477 1.2146453-7.0477225.1671746-.4142749.3816435-1.0598153.9588974-.8422402.3712452.069331.5835013.4742732.8267119.647872.9144109-.1596995.984914-1.2629706 1.4331717-1.9031433 1.1116842-2.3023749 2.0164725-4.9386372 4.2256448-6.4411112 9.7546687-6.4186674 19.7516906-12.6580254 28.2213818-20.7723242 3.6025608-3.4785527 6.839025-7.6239313 8.0863258-12.561547.9118735-3.710556.8489949-7.6060418.2809493-11.3645522-.7237303-4.2460296-2.3647205-8.3319488-4.7118884-11.93826947-2.6066029-3.69462687-6.5642569-6.38516265-10.9044098-7.60498602C82.0042325.59433326 80.2792827.87570028 78.5995653.6240519c-1.8069208-.17934673-3.6116908-.46435455-5.432648-.421597zm.6303038 1.31814364c.5783509.09281542 1.2320768.14324422 1.6619373.59121518-.7037713.44894662-1.7713233.50657597-2.3568965-.16742062-.0241234-.35148356.4159145-.47812288.6949592-.42379456zm-.1894617 5.53897842c4.2278243.46031725 8.5345024 1.74231162 11.8228106 4.53835514 2.2323331 2.3281024 3.7828146 5.251297 4.7901157 8.2964014 1.1395762 4.2161656.4140535 8.732252-1.1743446 12.7326828-.9602606 2.3195654-2.5342794 4.299386-4.1217767 6.2154346-2.5558187 3.273489-5.2991636 6.562342-8.9771369 8.6195936-3.4465987 2.0838036-6.4565447 4.7820003-9.6238306 7.249574-2.5448122 2.0454617-5.2297546 3.9474544-7.4421532 6.3698822-2.0776572 2.1795678-3.7471794 4.7652414-4.704537 7.6300193-.5011634 1.3660849-.9445516 2.7524561-1.4370612 4.1216426-4.1991932-2.8957128-6.920543-7.4657466-11.2452752-10.2091466-4.6676051-3.4363434-9.3381264-6.8744464-13.805236-10.5707603-5.6394639-4.488944-11.2340094-9.1822962-15.601707-14.9639762-1.5256863-2.512606-2.45174463-5.4414166-2.41087043-8.3915425.51953263-2.1191193 1.89596173-3.9028357 2.45147773-6.0116722.5848242-1.6685568.9787112-3.6367741 2.5747282-4.6642121 2.2125438-1.5700728 4.9329884-2.1778206 7.5664191-2.6100866.9633067-.1412913 1.9306924-.251855 2.8978144-.3632245-.6045424-.7491211-1.6704651-.3525936-2.4682585-.6633367-1.1524389-.162724-2.3048782-.3254481-3.4573172-.4881721 5.4012721-1.2236241 11.0636655-.0354604 16.0460091 2.1823747 3.7304021 1.6182586 7.3580224 3.477525 11.1685971 4.9067036 1.2329325.569972 2.087921 1.6630036 3.1286467 2.4882486.6991795.5058462 1.5695058.6741805 2.3642934.9209777 1.0405066.8162779.943493 2.3024566 1.6670671 3.3323908.156613.2513974.3827885.8479314.4451924.2297699.5129726-1.8896717.2143121-3.880552.6118686-5.790205.4189873-3.6615103 1.9627277-7.2672378 4.6966734-9.7960339 3.1195528-3.08448172 7.4446531-4.68468904 11.7575094-5.0940267.8183724-.14433397 1.6485991-.22942548 2.4802816-.21765554zM14.9873578 15.4484098c.4850547.0345015.1478638.6555597-.1609093.7116414-.3000205.3007727-1.1607367.3006555-1.0091495-.2896782.1898595-.445149.7674946-.4211363 1.1700588-.4219632zm82.0239595 14.202631c-.0137558.5842802-.1910515 1.1668335-.5281433 1.6463516-.1447623-.6756885.1570001-1.3457853.5065915-1.9078978.007185.0871822.01437.174364.0215518.2615462zm-.6882605 2.2738551c-.3530203 1.3618434-1.0065904 2.6472615-1.6920705 3.8757743-.7335679 1.2631673-1.6274556 2.436376-2.6790853 3.4518979-.4638933-.1518331-.1673084-.7984885.0149746-1.0851696 1.3342716-2.1488071 2.6530075-4.3951511 4.3561812-6.2425026zM9.28539877 36.9905237c1.99309813 2.8084123 3.85620883 5.7176426 6.07284793 8.3599752-.6279814.4534854-1.2346699-.2899413-1.6148544-.7265507-1.9558295-2.2334245-3.4041482-4.882274-4.46901287-7.6385995l.01101934.005175zM77.8695728 50.7683858c.4314969.3106028-.490766.8035483-.5291814.2855331.1201027-.1678916.3146641-.3030077.5291814-.2855331zm-1.1918753.9356843c-1.1590301 1.1928849-2.6413993 1.9844709-4.0641286 2.8130811 1.1914544-1.3184993 2.7770845-2.1685856 4.2891474-3.0590413-.0750073.0819868-.1500115.1639737-.2250188.2459602zM31.4112425 59.01707c1.3781754.9162219 2.7085425 1.9021832 4.0136599 2.919197-1.6090461-.3819619-2.7518198-1.6739295-4.0670259-2.5814624-.2243574-.2025703-.4283431-.4390061-.5406527-.7231134.1980061.1284597.3960123.2569191.5940187.3853788z" fill="url(#a)" fill-rule="nonzero"/>
</svg>
