<?xml version="1.0" encoding="UTF-8"?>
<svg width="86px" height="86px" viewBox="0 0 86 86" version="1.1" xmlns="http://www.w3.org/2000/svg" xmlns:xlink="http://www.w3.org/1999/xlink">
    <!-- Generator: Sketch 52.2 (67145) - http://www.bohemiancoding.com/sketch -->
    <title>Group 5 Copy</title>
    <desc>Created with Sketch.</desc>
    <g id="Web" stroke="none" stroke-width="1" fill="none" fill-rule="evenodd">
        <g id="Blog-Post" transform="translate(-677.000000, -2062.000000)">
            <g id="Group-7" transform="translate(571.000000, 2062.000000)">
                <g id="Group-5-Copy" transform="translate(106.000000, 0.000000)">
                    <rect id="Rectangle-3" fill="#1DA1F2" transform="translate(43.000000, 43.000000) rotate(45.000000) translate(-43.000000, -43.000000) " x="13" y="13" width="60" height="60"></rect>
                    <g id="twitter" transform="translate(28.000000, 31.000000)" fill="#FFFFFF" fill-rule="nonzero">
                        <path d="M26.5021154,5.98361538 C26.5208654,6.246 26.5208654,6.50844231 26.5208654,6.77082692 C26.5208654,14.7739038 20.4295385,23.9953269 9.29636538,23.9953269 C5.86644231,23.9953269 2.68021154,23.0019231 0,21.2776731 C0.487326923,21.3338654 0.955846154,21.3526154 1.46192308,21.3526154 C4.29201923,21.3526154 6.89728846,20.3967692 8.97773077,18.7661538 C6.31626923,18.7099038 4.08588462,16.9668462 3.31742308,14.5677692 C3.69230769,14.6239615 4.06713462,14.6614615 4.46076923,14.6614615 C5.00428846,14.6614615 5.54786538,14.5864615 6.05388462,14.4553269 C3.27998077,13.893 1.19948077,11.4564808 1.19948077,8.51388462 L1.19948077,8.43894231 C2.00538462,8.88876923 2.94259615,9.16990385 3.93588462,9.20734615 C2.30526923,8.12025 1.23698077,6.26475 1.23698077,4.16555769 C1.23698077,3.04101923 1.53680769,2.01017308 2.06163462,1.11051923 C5.04173077,4.78407692 9.52125,7.18309615 14.5442308,7.44553846 C14.4505385,6.99571154 14.3942885,6.52719231 14.3942885,6.05861538 C14.3942885,2.72238462 17.09325,0.00473076923 20.4481731,0.00473076923 C22.1912308,0.00473076923 23.7655962,0.735692308 24.8714423,1.91648077 C26.2396154,1.65409615 27.5515962,1.14801923 28.7136923,0.454557692 C28.2638077,1.86028846 27.3079615,3.04107692 26.0522308,3.79073077 C27.2705192,3.65959615 28.4513077,3.32215385 29.5383462,2.85363462 C28.7138077,4.05311538 27.6829038,5.12140385 26.5021154,5.98361538 Z" id="Shape"></path>
                    </g>
                </g>
            </g>
        </g>
    </g>
</svg>