<?xml version="1.0" encoding="UTF-8"?>
<svg width="86px" height="86px" viewBox="0 0 86 86" version="1.1" xmlns="http://www.w3.org/2000/svg" xmlns:xlink="http://www.w3.org/1999/xlink">
    <!-- Generator: Sketch 52.2 (67145) - http://www.bohemiancoding.com/sketch -->
    <title>Group 5 Copy 2</title>
    <desc>Created with Sketch.</desc>
    <g id="Web" stroke="none" stroke-width="1" fill="none" fill-rule="evenodd">
        <g id="Blog-Post" transform="translate(-783.000000, -2062.000000)">
            <g id="Group-7" transform="translate(571.000000, 2062.000000)">
                <g id="Group-5-Copy-2" transform="translate(212.000000, 0.000000)">
                    <rect id="Rectangle-3" fill="#DD4B39" transform="translate(43.000000, 43.000000) rotate(45.000000) translate(-43.000000, -43.000000) " x="13" y="13" width="60" height="60"></rect>
                    <g id="google-plus-g" transform="translate(24.000000, 31.000000)" fill="#FFFFFF" fill-rule="nonzero">
                        <path d="M23.6149621,10.281 C23.7307449,10.88675 23.8133838,11.4925 23.8133838,12.27825 C23.8133838,19.1378125 19.1666035,24 12.1717172,24 C5.47449495,24 0.0505050505,18.6303125 0.0505050505,12 C0.0505050505,5.3696875 5.47449495,0 12.1717172,0 C15.4459596,0 18.1744318,1.1786875 20.2910985,3.14325 L17.0003157,6.270125 C16.1073232,5.4188125 14.5364268,4.4201875 12.1717172,4.4201875 C8.03762626,4.4201875 4.66414141,7.809 4.66414141,12 C4.66414141,16.191 8.03762626,19.5798125 12.1717172,19.5798125 C16.9672348,19.5798125 18.7697601,16.15825 19.0508207,14.4065 L12.1717172,14.4065 L12.1717172,10.2809375 L23.6149621,10.2809375 L23.6149621,10.281 Z M35.3198864,10.6833125 L35.3198864,7.2 L31.7844697,7.2 L31.7844697,10.6833125 L28.2659722,10.6833125 L28.2659722,14.183375 L31.7844697,14.183375 L31.7844697,17.6666875 L35.3198864,17.6666875 L35.3198864,14.183375 L38.8383838,14.183375 L38.8383838,10.6833125 L35.3198864,10.6833125 Z" id="Shape"></path>
                    </g>
                </g>
            </g>
        </g>
    </g>
</svg>